<svg xmlns="http://www.w3.org/2000/svg" xmlns:xlink="http://www.w3.org/1999/xlink" width="38" height="38" viewBox="0 0 38 38">
  <defs>
    <clipPath id="clip-path">
      <rect id="Retângulo_417" data-name="Retângulo 417" width="29.869" height="27.704" fill="#fff"/>
    </clipPath>
  </defs>
  <g id="Grupo_803" data-name="Grupo 803" transform="translate(-805 -302)">
    <rect id="Retângulo_631" data-name="Retângulo 631" width="38" height="38" rx="10" transform="translate(805 302)" fill="#141533"/>
    <g id="Grupo_326" data-name="Grupo 326" transform="translate(808.233 306.989)">
      <g id="Grupo_223" data-name="Grupo 223" transform="translate(0 0)" clip-path="url(#clip-path)">
        <path id="Caminho_152" data-name="Caminho 152" d="M52.457,60.22,52.1,59.96l-.186-.137-.271-.219a8.3,8.3,0,0,1-.627-.55,8.881,8.881,0,0,1-.647-.673,9.228,9.228,0,0,1-.651-.815c-.112-.141-.207-.3-.308-.458s-.207-.312-.293-.484l-.269-.508c-.083-.174-.157-.354-.235-.531a5.553,5.553,0,0,1-.2-.543c-.061-.184-.13-.362-.172-.55L48.1,53.94q-.047-.277-.092-.548a4.984,4.984,0,0,1-.059-.533c-.01-.175-.034-.344-.03-.512a8.022,8.022,0,0,1,.034-.939L48,50.994l.067-.37a5.02,5.02,0,0,1,.132-.594c.093-.324.387-1.183.387-1.183l2.687.761s-.261.8-.3,1.019a2.784,2.784,0,0,0-.04.4c-.005.076-.011.157-.016.242s0,.176.007.27a5.08,5.08,0,0,0,.049.6c.007.106.041.214.06.325a2.59,2.59,0,0,0,.078.335l.1.342.132.342a3.185,3.185,0,0,0,.153.339,2.85,2.85,0,0,0,.172.333l.19.324.214.307a3.542,3.542,0,0,0,.227.29,3.215,3.215,0,0,0,.234.272,5.7,5.7,0,0,0,.485.477,5.406,5.406,0,0,0,.472.388,4.28,4.28,0,0,0,.388.267c.06.038.1.069.163.108l.2.116.38.219Z" transform="translate(-31.902 -32.516)" fill="#fff"/>
        <path id="Subtração_1" data-name="Subtração 1" d="M28.84,21.722a.525.525,0,0,1-.142-.02L24.453,20.52a4.381,4.381,0,0,1-1.743-.957l-1.634-1.469a5.355,5.355,0,0,0-2.059-1.15l-5.2-1.527a4.76,4.76,0,0,0-.975-.179l-8.277-.65A28.526,28.526,0,0,1,.4,13.793H.391a.527.527,0,0,1,.138-1.037l.047,0A22.615,22.615,0,0,0,4.338,11.2a14.739,14.739,0,0,1,1.549-4.57A13.369,13.369,0,0,1,8.626,3.092,11.383,11.383,0,0,1,16.281,0a10.511,10.511,0,0,1,2.685.35,14.464,14.464,0,0,1,5.2,2.571,14.785,14.785,0,0,1,5.55,9.54,14.465,14.465,0,0,1-.336,5.794l-.625,2.368.224.062a.528.528,0,0,1-.141,1.037ZM16.28,2.095a8.4,8.4,0,0,1,2.151.281A12.6,12.6,0,0,1,27.358,17.72l-.279,1.054a.335.335,0,0,0,.238.408.327.327,0,0,0,.085.012.335.335,0,0,0,.323-.249L28,17.891A13.262,13.262,0,0,0,18.6,1.729a9.069,9.069,0,0,0-2.322-.3c-4.7,0-8.927,3.628-10.286,8.823a.328.328,0,0,0,.034.252.332.332,0,0,0,.2.156.328.328,0,0,0,.085.011.335.335,0,0,0,.324-.25C7.924,5.518,11.887,2.095,16.28,2.095Z" transform="translate(0 0)" fill="#fff"/>
      </g>
    </g>
  </g>
</svg>
