<svg xmlns="http://www.w3.org/2000/svg" xmlns:xlink="http://www.w3.org/1999/xlink" width="38" height="38" viewBox="0 0 38 38">
  <defs>
    <clipPath id="clip-path">
      <rect id="Ret창ngulo_415" data-name="Ret창ngulo 415" width="36.364" height="11.912" fill="#fff"/>
    </clipPath>
  </defs>
  <g id="Grupo_800" data-name="Grupo 800" transform="translate(-566 -363)">
    <rect id="Ret창ngulo_625" data-name="Ret창ngulo 625" width="38" height="38" rx="10" transform="translate(566 363)" fill="#141533"/>
    <g id="Grupo_324" data-name="Grupo 324" transform="translate(567.875 364.302)">
      <g id="Grupo_219" data-name="Grupo 219" transform="matrix(0.695, -0.719, 0.719, 0.695, 0, 26.158)" clip-path="url(#clip-path)">
        <path id="Caminho_143" data-name="Caminho 143" d="M0,0V8.468a3.454,3.454,0,0,0,3.444,3.444h7.022A3.791,3.791,0,0,0,14.2,8.468l.311-2.062c.151-1,.724-1.741,1.737-1.741s1.585.74,1.737,1.741l.311,2.062c.427,2.189,1.837,3.444,3.732,3.444h7.022a3.455,3.455,0,0,0,3.445-3.444V0ZM31.344,8.468a2.3,2.3,0,0,1-2.3,2.3H22.025a2.706,2.706,0,0,1-2.6-2.493l-.307-2.037a2.876,2.876,0,0,0-5.744,0L13.063,8.3a2.656,2.656,0,0,1-2.6,2.468H3.444a2.3,2.3,0,0,1-2.3-2.3V1.148h30.2Z" transform="translate(1.936 0)" fill="#fff"/>
        <path id="Caminho_144" data-name="Caminho 144" d="M0,0V1.148H15.109V8.468a2.3,2.3,0,0,1-2.3,2.3H5.79a2.705,2.705,0,0,1-2.6-2.493L2.883,6.234A2.917,2.917,0,0,0,.011,3.516H0V4.665H.011c1.012,0,1.586.74,1.737,1.741l.311,2.062c.427,2.189,1.837,3.445,3.732,3.445h7.022a3.455,3.455,0,0,0,3.444-3.445V0Z" transform="translate(18.171 0)" fill="#fff"/>
        <path id="Caminho_145" data-name="Caminho 145" d="M28.277,10.371H21.255c-1.532,0-2.615-1.019-2.97-2.8L17.974,5.52a2.5,2.5,0,0,0-5,0l-.311,2.062A3.045,3.045,0,0,1,9.7,10.371H2.674A2.677,2.677,0,0,1,0,7.7V0H30.951V7.7a2.677,2.677,0,0,1-2.673,2.673m-12.8-8a3.278,3.278,0,0,1,3.245,3.039l.307,2.037a2.312,2.312,0,0,0,2.227,2.172h7.022A1.921,1.921,0,0,0,30.2,7.7V.755H.755V7.7A1.921,1.921,0,0,0,2.674,9.616H9.7A2.294,2.294,0,0,0,11.92,7.463l.31-2.056a3.278,3.278,0,0,1,3.245-3.039" transform="translate(2.706 0.771)" fill="#fff"/>
        <path id="Caminho_146" data-name="Caminho 146" d="M.931,3.3H0V0H.931a1,1,0,0,1,1,1V2.3a1,1,0,0,1-1,1" transform="translate(34.428 3.66)" fill="#fff"/>
        <path id="Caminho_147" data-name="Caminho 147" d="M1.936,3.3H1a1,1,0,0,1-1-1V1A1,1,0,0,1,1,0h.931Z" transform="translate(0 3.66)" fill="#fff"/>
      </g>
    </g>
  </g>
</svg>
