<svg xmlns="http://www.w3.org/2000/svg" xmlns:xlink="http://www.w3.org/1999/xlink" width="38" height="38" viewBox="0 0 38 38">
  <defs>
    <clipPath id="clip-path">
      <rect id="Ret창ngulo_424" data-name="Ret창ngulo 424" width="28.157" height="28.164" fill="#fff"/>
    </clipPath>
  </defs>
  <g id="Grupo_799" data-name="Grupo 799" transform="translate(-565 -302)">
    <rect id="Ret창ngulo_624" data-name="Ret창ngulo 624" width="38" height="38" rx="10" transform="translate(565 302)" fill="#141533"/>
    <g id="Grupo_234" data-name="Grupo 234" transform="translate(569.858 305.479)">
      <g id="Grupo_233" data-name="Grupo 233" transform="translate(0 0)" clip-path="url(#clip-path)">
        <path id="Caminho_178" data-name="Caminho 178" d="M14.163,3.666a2.8,2.8,0,0,0,1.4-.193,7.261,7.261,0,0,0,.818-.518q1.694-1.2,3.38-2.42A2.448,2.448,0,0,1,21.137,0a2.319,2.319,0,0,1,1.746.752l2.954,2.956c.557.558,1.119,1.111,1.667,1.677a2.183,2.183,0,0,1,.651,1.674,2.481,2.481,0,0,1-.533,1.34q-1.356,1.9-2.707,3.806a2.369,2.369,0,0,0-.424,1.34,18.681,18.681,0,0,1-.106,2.046,10.149,10.149,0,0,1-3.5,6.392,10.086,10.086,0,0,1-4.837,2.33,10.471,10.471,0,0,1-2.313.179,2.653,2.653,0,0,0-1.706.544c-1.2.872-2.414,1.724-3.621,2.587a2.479,2.479,0,0,1-1.375.538A2.313,2.313,0,0,1,5.272,27.4Q3.03,25.156.792,22.911a2.974,2.974,0,0,1-.518-.68A2.1,2.1,0,0,1,.46,19.887c.863-1.215,1.722-2.432,2.6-3.633a2.9,2.9,0,0,0,.616-1.887,9.743,9.743,0,0,1,.875-4.524,10.258,10.258,0,0,1,6.926-5.86,9.334,9.334,0,0,1,2.682-.317m6.3,10.318a6.379,6.379,0,1,0-6.28,6.482,6.346,6.346,0,0,0,6.28-6.482" transform="translate(0 0)" fill="#fff"/>
        <path id="Caminho_179" data-name="Caminho 179" d="M29.16,25.322a1,1,0,0,1,1.118.9.939.939,0,0,1-.913.991,2.174,2.174,0,0,0-1.724.894,2.321,2.321,0,0,0-.4,1.255.949.949,0,0,1-.831.885.914.914,0,0,1-1-.631,2.187,2.187,0,0,1-.034-.777,3.967,3.967,0,0,1,3.146-3.433c.244-.049.495-.069.634-.087" transform="translate(-15.247 -15.224)" fill="#fff"/>
      </g>
    </g>
  </g>
</svg>
